Coordinates
version=1
nRows=54
nColumns=12
inDegrees=yes

Units are S.I. units (second, meters, Newtons, ...)
Angles are in degrees

endheader
time	SC_y	SC_z	SC_x	AC_y	AC_z	AC_x	GH_y	GH_z	GH_yy	EL_x	PS_y
       0.0              -50.92          13.56          23.67          34.87         -3.429          9.526          108.7          51.85         -161.3          63.54          37.76
  0.004925              -50.92          13.56          23.67          34.87          -3.43          9.526          108.6          51.84         -161.2          63.53          37.76
   0.00985              -50.91          13.56          23.67          34.87         -3.432          9.527          108.6          51.84         -161.2          63.52          37.76
   0.01477              -50.91          13.57          23.67          34.87         -3.433          9.528          108.6          51.83         -161.2          63.51          37.76
    0.0197               -50.9          13.57          23.67          34.87         -3.435          9.529          108.6          51.82         -161.2           63.5          37.76
   0.02462               -50.9          13.58          23.68          34.87         -3.437          9.529          108.6          51.81         -161.2          63.49          37.76
   0.02955              -50.89          13.58          23.68          34.87         -3.439           9.53          108.6           51.8         -161.2          63.48          37.76
   0.03447              -50.89          13.59          23.68          34.87          -3.44          9.531          108.5          51.79         -161.1          63.47          37.76
    0.0394              -50.88          13.59          23.68          34.87         -3.443          9.532          108.5          51.78         -161.1          63.46          37.76
   0.04432              -50.88           13.6          23.68          34.88         -3.445          9.533          108.5          51.77         -161.1          63.44          37.76
   0.04925              -50.87           13.6          23.69          34.88         -3.447          9.534          108.5          51.76         -161.1          63.43          37.76
   0.05417              -50.86          13.61          23.69          34.88          -3.45          9.536          108.4          51.75         -161.0          63.41          37.76
    0.0591              -50.85          13.62          23.69          34.88         -3.453          9.537          108.4          51.73         -161.0          63.39          37.76
   0.06402              -50.84          13.62          23.69          34.88         -3.456          9.538          108.4          51.72         -161.0          63.37          37.76
   0.06895              -50.83          13.63           23.7          34.88         -3.459           9.54          108.3           51.7         -160.9          63.35          37.76
   0.07387              -50.82          13.64           23.7          34.88         -3.463          9.541          108.3          51.69         -160.9          63.33          37.76
    0.0788              -50.81          13.65           23.7          34.88         -3.466          9.543          108.3          51.67         -160.9           63.3          37.76
   0.08372               -50.8          13.66          23.71          34.88         -3.471          9.545          108.2          51.65         -160.8          63.28          37.76
   0.08865              -50.79          13.67          23.71          34.88         -3.475          9.547          108.2          51.62         -160.8          63.25          37.76
   0.09357              -50.77          13.68          23.72          34.88          -3.48           9.55          108.1           51.6         -160.7          63.22          37.76
    0.0985              -50.76           13.7          23.72          34.89         -3.486          9.552          108.0          51.57         -160.7          63.18          37.76
    0.1034              -50.74          13.71          23.73          34.89         -3.492          9.555          108.0          51.54         -160.6          63.14          37.76
    0.1083              -50.72          13.73          23.73          34.89         -3.499          9.558          107.9          51.51         -160.5           63.1          37.76
    0.1133               -50.7          13.75          23.74          34.89         -3.506          9.562          107.8          51.47         -160.5          63.05          37.76
    0.1182              -50.67          13.77          23.75          34.89         -3.515          9.566          107.7          51.43         -160.4           63.0          37.76
    0.1231              -50.65          13.79          23.76           34.9         -3.524           9.57          107.6          51.39         -160.3          62.94          37.76
     0.128              -50.62          13.81          23.77           34.9         -3.534          9.575          107.5          51.33         -160.2          62.87          37.76
     0.133              -50.58          13.84          23.78           34.9         -3.546           9.58          107.4          51.28         -160.0           62.8          37.76
    0.1379              -50.54          13.87          23.79          34.91         -3.559          9.586          107.3          51.21         -159.9          62.72          37.76
    0.1428               -50.5          13.91          23.81          34.91         -3.574          9.593          107.1          51.14         -159.7          62.62          37.76
    0.1477              -50.45          13.95          23.82          34.91         -3.591          9.601          106.9          51.06         -159.6          62.51          37.76
    0.1527              -50.39           14.0          23.84          34.92         -3.611          9.611          106.7          50.96         -159.4          62.39          37.76
    0.1576              -50.33          14.05          23.86          34.92         -3.634          9.621          106.5          50.85         -159.1          62.24          37.76
    0.1625              -50.25          14.12          23.89          34.93          -3.66          9.633          106.2          50.72         -158.9          62.08          37.76
    0.1674              -50.16          14.19          23.92          34.94         -3.691          9.648          105.9          50.57         -158.5          61.88          37.76
    0.1724              -50.06          14.28          23.95          34.95         -3.727          9.665          105.5          50.39         -158.2          61.65          37.76
    0.1773              -49.93          14.39          23.99          34.96          -3.77          9.685          105.0          50.18         -157.7          61.38          37.76
    0.1822              -49.78          14.51          24.04          34.97         -3.822          9.709          104.5          49.92         -157.2          61.05          37.77
    0.1871               -49.6          14.66           24.1          34.99         -3.885          9.738          103.8          49.62         -156.5          60.65          37.77
    0.1921              -49.37          14.85          24.17          35.01         -3.961          9.774          103.0          49.24         -155.7          60.17          37.77
     0.197               -49.1          15.08          24.26          35.04         -4.055          9.818          102.0          48.78         -154.7          59.57          37.77
    0.2019              -48.76          15.37          24.37          35.07         -4.173          9.873          100.7           48.2         -153.5          58.82          37.77
    0.2068              -48.33          15.73          24.51           35.1         -4.321          9.942          99.14          47.47         -152.0          57.88          37.77
    0.2118              -47.78          16.18          24.69          35.15          -4.51          10.03          97.13          46.55         -150.0          56.69          37.77
    0.2167              -47.08          16.77          24.92          35.22         -4.751          10.14          94.56          45.37         -147.5          55.16          37.78
    0.2216              -46.18          17.52          25.21           35.3         -5.061          10.29          91.26          43.85         -144.3           53.2          37.78
    0.2265              -45.03          18.48          25.59           35.4         -5.456          10.47          87.05          41.91         -140.1          50.69          37.79
    0.2315              -43.58          19.69          26.06          35.53         -5.954           10.7          81.75          39.47         -135.0          47.54          37.79
    0.2364              -41.82          21.16          26.63          35.69          -6.56          10.99          75.29           36.5         -128.6          43.69           37.8
    0.2413              -39.78          22.87           27.3          35.88         -7.262          11.31          67.81          33.05         -121.3          39.24          37.81
    0.2462              -37.56          24.72          28.02          36.07         -8.023          11.67           59.7          29.32         -113.4          34.42          37.82
    0.2512              -35.35          26.56          28.74          36.27         -8.784          12.02          51.59          25.59         -105.5           29.6          37.83
    0.2561              -33.31          28.27           29.4          36.46         -9.486          12.35          44.11          22.15         -98.17          25.14          37.84
     0.261              -31.55          29.74          29.97          36.62         -10.09          12.64          37.65          19.17         -91.86           21.3          37.85
